<svg width="1920" height="847" viewBox="0 0 1920 1100" fill="none" xmlns="http://www.w3.org/2000/svg">
    <path fill-rule="evenodd" clip-rule="evenodd" d="M-286 282.905L-246 302.1C-206 321.295 -126 359.685 -46 388.478C34 417.27 114 436.465 194 398.075C274 359.685 354 263.71 434 234.918C514 206.125 594 244.515 674 292.503C754 340.49 834 398.075 914 426.868C994 455.66 1074 455.66 1154 455.66C1234 455.66 1314 455.66 1394 484.453C1474 513.245 1554 570.83 1594 599.623L1634 628.415V686H1594C1554 686 1474 686 1394 686C1314 686 1234 686 1154 686C1074 686 994 686 914 686C834 686 754 686 674 686C594 686 514 686 434 686C354 686 274 686 194 686C114 686 34 686 -46 686C-126 686 -206 686 -246 686H-286V282.905Z" fill="url(#paint0_linear_1001_10607)"/>
    <path fill-rule="evenodd" clip-rule="evenodd" d="M1946 110L1889.24 129.2C1830.76 148.4 1717.24 186.8 1602 186.8C1486.76 186.8 1373.24 148.4 1258 196.4C1142.76 244.4 1029.24 378.8 914 436.4C798.76 494 685.24 474.8 570 484.4C454.76 494 341.24 532.4 226 551.6C110.76 570.8 -2.76001 570.8 -61.24 570.8H-118V686H-61.24C-2.76001 686 110.76 686 226 686C341.24 686 454.76 686 570 686C685.24 686 798.76 686 914 686C1029.24 686 1142.76 686 1258 686C1373.24 686 1486.76 686 1602 686C1717.24 686 1830.76 686 1889.24 686H1946V110Z" fill="url(#paint1_linear_1001_10607)"/>
    <path opacity="0.35" fill-rule="evenodd" clip-rule="evenodd" d="M-255 280L-226.706 330C-192.753 375 -136.164 470 -73.9167 510C-11.6693 550 44.9193 530 107.167 500C169.414 470 226.003 435 288.25 415C350.497 395 407.086 395 469.333 395C531.581 395 588.169 395 650.417 425C712.664 455 769.253 510 831.5 490C893.747 470 950.336 375 1012.58 330C1074.83 280 1131.42 280 1193.67 310C1255.91 340 1312.5 395 1374.75 435C1437 470 1493.59 490 1555.83 500C1618.08 510 1674.67 510 1736.92 490C1799.16 470 1855.75 435 1889.71 415L1918 395V625H1889.71C1855.75 625 1799.16 625 1736.92 625C1674.67 625 1618.08 625 1555.83 625C1493.59 625 1437 625 1374.75 625C1312.5 625 1255.91 625 1193.67 625C1131.42 625 1074.83 625 1012.58 625C950.336 625 893.747 625 831.5 625C769.253 625 712.664 625 650.417 625C588.169 625 531.581 625 469.333 625C407.086 625 350.497 625 288.25 625C226.003 625 169.414 625 107.167 625C44.9193 625 -11.6693 625 -73.9167 625C-136.164 625 -192.753 625 -226.706 625H-255V280Z" fill="url(#paint2_linear_1001_10607)"/>
    <path opacity="0.35" fill-rule="evenodd" clip-rule="evenodd" d="M-227 391L-187 370C-147 348 -66 304 14 315C95 326 175 391 256 413C336 435 417 413 497 370C578 326 658 261 739 250C819 239 900 283 980 337C1061 391 1141 457 1222 402C1302 348 1383 174 1463 131C1544 87 1624 174 1705 174C1785 174 1866 87 1906 44L1946 0V587H1906C1866 587 1785 587 1705 587C1624 587 1544 587 1463 587C1383 587 1302 587 1222 587C1141 587 1061 587 980 587C900 587 819 587 739 587C658 587 578 587 497 587C417 587 336 587 256 587C175 587 95 587 14 587C-66 587 -147 587 -187 587H-227V391Z" fill="url(#paint3_linear_1001_10607)"/>
    <path d="M542.815 272.645C438.092 339.703 334.508 512.851 230.923 541.876C153.634 563.298 76.9645 506.215 0 463.17V686H230.923H542.815H854.708H1166.6H1479.63H1893.64H1919.82V335.199L1893.64 330.695C1842.42 320.686 1645.26 291.661 1541.68 339.703C1436.96 387.744 1271.32 512.851 1166.6 512.851C1063.02 512.851 959.431 397.752 854.708 320.686C751.123 243.62 646.4 205.587 542.815 272.645Z" fill="url(#paint4_linear_1001_10607)"/>
    <rect y="686" width="1920" height="400" fill="url(#paint5_linear_1001_10607)"/>
    <defs>
        <linearGradient id="paint0_linear_1001_10607" x1="-286" y1="225" x2="567.433" y2="1437.02" gradientUnits="userSpaceOnUse">
            <stop stop-color="#1A1A67"/>
            <stop offset="1" stop-color="#2683B8"/>
        </linearGradient>
        <linearGradient id="paint1_linear_1001_10607" x1="1946" y1="110" x2="835.76" y2="1466.57" gradientUnits="userSpaceOnUse">
            <stop stop-color="#1A1A67"/>
            <stop offset="1" stop-color="#2683B8"/>
        </linearGradient>
        <linearGradient id="paint2_linear_1001_10607" x1="154.135" y1="280" x2="960.418" y2="1283.19" gradientUnits="userSpaceOnUse">
            <stop stop-color="#9CD0EE"/>
            <stop offset="1" stop-color="#46A1D5"/>
        </linearGradient>
        <linearGradient id="paint3_linear_1001_10607" x1="182.135" y1="2.47554e-05" x2="1520.77" y2="978.905" gradientUnits="userSpaceOnUse">
            <stop stop-color="#9CD0EE"/>
            <stop offset="1" stop-color="#46A1D5"/>
        </linearGradient>
        <linearGradient id="paint4_linear_1001_10607" x1="0" y1="462" x2="1919.82" y2="462" gradientUnits="userSpaceOnUse">
            <stop stop-color="#1A1A67"/>
            <stop offset="1" stop-color="#2683B8"/>
        </linearGradient>
        <linearGradient id="paint5_linear_1001_10607" x1="0" y1="766.5" x2="1920" y2="766.5" gradientUnits="userSpaceOnUse">
            <stop stop-color="#1A1A67"/>
            <stop offset="1" stop-color="#2683B8"/>
        </linearGradient>
    </defs>
</svg>
