<svg width="24" height="24" viewBox="0 0 24 24" fill="none" xmlns="http://www.w3.org/2000/svg">
<path fill-rule="evenodd" clip-rule="evenodd" d="M13.5213 1.89446C12.5825 1.34235 11.4183 1.34235 10.4796 1.89446L7.25943 3.78833L4.00922 5.63011C3.0617 6.16704 2.47959 7.17529 2.48835 8.26433L2.51843 12L2.48835 15.7356C2.47959 16.8247 3.0617 17.8329 4.00922 18.3699L7.25943 20.2116L10.4796 22.1055C11.4183 22.6576 12.5825 22.6576 13.5213 22.1055L16.7414 20.2116L19.9916 18.3699C20.9392 17.8329 21.5213 16.8247 21.5125 15.7356L21.4824 12L21.5125 8.26433C21.5213 7.1753 20.9392 6.16704 19.9916 5.63011L16.7414 3.78833L13.5213 1.89446ZM11.4935 3.6184C11.8064 3.43437 12.1945 3.43437 12.5074 3.61841L15.7414 5.52044L18.8138 7.26147L12.0005 10.8685L5.18711 7.26145L8.25949 5.52044L11.4935 3.6184Z" fill="#414141"/>
</svg>
