<svg width="14" height="14" viewBox="0 0 14 14" fill="none" xmlns="http://www.w3.org/2000/svg">
<path d="M12.9951 0.994213C12.6699 0.668944 12.1466 0.668944 11.8213 0.994213L6.99887 5.81668L2.16933 0.987142C2.01376 0.831579 1.80163 0.746726 1.58243 0.739655C1.36323 0.746726 1.1518 0.830871 0.99553 0.987142C0.670261 1.31241 0.670261 1.83567 0.988459 2.16801L5.818 6.99755L0.988459 11.8271C0.66319 12.1524 0.66319 12.6756 0.988459 13.0009C1.31373 13.3262 1.83699 13.3262 2.16226 13.0009L6.9918 8.17135L11.8284 13.008C12.1607 13.3262 12.684 13.3262 13.0093 13.0009C13.3345 12.6756 13.3345 12.1524 13.0093 11.8271L8.17266 6.99048L12.9951 2.16801C13.3204 1.84274 13.3204 1.31948 12.9951 0.994213Z" fill="#868686"/>
</svg>
