<svg width="144" height="160" viewBox="0 0 144 160" fill="none" xmlns="http://www.w3.org/2000/svg">
<path d="M105.528 0C130.24 0 144 14.24 144 38.64V121.28C144 146.08 130.24 160 105.528 160H38.48C14.16 160 0 146.08 0 121.28V38.64C0 14.24 14.16 0 38.48 0H105.528ZM40.64 109.92C38.24 109.68 35.92 110.8 34.64 112.88C33.36 114.88 33.36 117.52 34.64 119.6C35.92 121.6 38.24 122.8 40.64 122.48H103.36C106.552 122.16 108.96 119.432 108.96 116.24C108.96 112.96 106.552 110.24 103.36 109.92H40.64ZM103.36 73.432H40.64C37.192 73.432 34.4 76.24 34.4 79.68C34.4 83.12 37.192 85.92 40.64 85.92H103.36C106.8 85.92 109.6 83.12 109.6 79.68C109.6 76.24 106.8 73.432 103.36 73.432ZM64.552 37.2H40.64V37.28C37.192 37.28 34.4 40.08 34.4 43.52C34.4 46.96 37.192 49.76 40.64 49.76H64.552C68 49.76 70.8 46.96 70.8 43.432C70.8 40 68 37.2 64.552 37.2Z" fill="#D5F0FF"/>
</svg>
