<svg width="42" height="49" viewBox="0 0 42 49" fill="none" xmlns="http://www.w3.org/2000/svg">
<path d="M37.0492 30.5392L12.1128 39.5058C11.7944 39.6119 11.4761 39.5588 11.2108 39.2935L9.1416 35.4204C8.71715 34.996 7.60297 34.8899 8.13354 34.6246L40.604 20.5647C41.1345 20.2994 41.7712 20.7238 41.7712 21.3075V23.6419C41.8242 26.7723 39.9142 29.4781 37.0492 30.5392Z" fill="#E6E6E6"/>
<path d="M1.6077 29.6377L0.758804 23.5893C0.652692 23.2179 0.864917 22.8465 1.18325 22.6343L40.604 2.04844C41.1877 1.7301 41.8243 2.15455 41.8243 2.79123L41.3468 9.58243C41.3468 9.90076 41.3999 10.0599 41.1346 10.2191L2.828 30.1682C2.35049 30.4335 1.76687 30.1682 1.6077 29.6377Z" fill="#E6E6E6"/>
<path d="M28.6664 2.41761L1.76685 12.6575C1.23628 12.8697 0.599609 12.4983 0.599609 11.8616V5.81321C0.599609 5.38876 0.86489 5.07043 1.28934 5.01737L22.9893 0.825928C23.0424 0.825928 23.0955 0.825928 23.1485 0.825928H28.348C29.25 0.825928 29.5153 2.09928 28.6664 2.41761Z" fill="#E6E6E6"/>
<path d="M41.8244 21.3607V24.8624C41.8244 27.356 40.8163 29.7436 39.0654 31.4944L21.8222 48.5785C21.5038 48.8969 20.9733 48.8969 20.6549 48.5785L17.0471 45.0237C16.7288 44.7054 16.7288 44.1748 17.0471 43.8565L40.3918 20.777C40.9224 20.2465 41.8244 20.6179 41.8244 21.3607Z" fill="url(#paint0_linear_826:4348)"/>
<path d="M41.8244 2.84419V9.15789C41.8244 9.90067 41.5591 10.5904 41.0286 11.0679L12.4312 39.2938C12.1129 39.6122 11.5823 39.6122 11.264 39.2938L8.50509 36.588C7.70924 35.7921 7.70924 34.5188 8.50509 33.7229L40.3919 2.20752C40.9224 1.67696 41.8244 2.10141 41.8244 2.84419Z" fill="url(#paint1_linear_826:4348)"/>
<path d="M31.16 2.26048L3.0402 30.0619C2.72186 30.3803 2.1913 30.3803 1.87296 30.0619C1.07712 29.2661 0.599609 28.205 0.599609 27.0908V23.3769C0.599609 23.1646 0.705722 22.9524 0.864891 22.7932L22.8302 1.04018C22.9893 0.881015 23.2016 0.774902 23.4138 0.774902H30.5764C31.3192 0.827959 31.6906 1.72991 31.16 2.26048Z" fill="url(#paint2_linear_826:4348)"/>
<path d="M12.3781 2.26085L2.03213 12.5007C1.50157 13.0313 0.599609 12.6599 0.599609 11.9171V5.55034C0.599609 5.33811 0.705722 5.12589 0.864891 4.96672L4.89716 1.09362C5.05633 0.934447 5.26856 0.88139 5.48078 0.88139H11.7945C12.5373 0.828334 12.9087 1.73029 12.3781 2.26085Z" fill="url(#paint3_linear_826:4348)"/>
<defs>
<linearGradient id="paint0_linear_826:4348" x1="-4.17624" y1="10.3797" x2="37.4803" y2="39.0586" gradientUnits="userSpaceOnUse">
<stop stop-color="#1B1464"/>
<stop offset="0.1244" stop-color="#1A1A67"/>
<stop offset="0.2823" stop-color="#18296F"/>
<stop offset="0.4583" stop-color="#14437C"/>
<stop offset="0.6475" stop-color="#0E688E"/>
<stop offset="0.845" stop-color="#0796A5"/>
<stop offset="1" stop-color="#00BFBA"/>
</linearGradient>
<linearGradient id="paint1_linear_826:4348" x1="0.809916" y1="3.13738" x2="42.4665" y2="31.8163" gradientUnits="userSpaceOnUse">
<stop stop-color="#1B1464"/>
<stop offset="0.1244" stop-color="#1A1A67"/>
<stop offset="0.2823" stop-color="#18296F"/>
<stop offset="0.4583" stop-color="#14437C"/>
<stop offset="0.6475" stop-color="#0E688E"/>
<stop offset="0.845" stop-color="#0796A5"/>
<stop offset="1" stop-color="#00BFBA"/>
</linearGradient>
<linearGradient id="paint2_linear_826:4348" x1="0.0652266" y1="4.21889" x2="41.7217" y2="32.8978" gradientUnits="userSpaceOnUse">
<stop stop-color="#1B1464"/>
<stop offset="0.1244" stop-color="#1A1A67"/>
<stop offset="0.2823" stop-color="#18296F"/>
<stop offset="0.4583" stop-color="#14437C"/>
<stop offset="0.6475" stop-color="#0E688E"/>
<stop offset="0.845" stop-color="#0796A5"/>
<stop offset="1" stop-color="#00BFBA"/>
</linearGradient>
<linearGradient id="paint3_linear_826:4348" x1="0.986177" y1="2.8815" x2="42.6428" y2="31.5604" gradientUnits="userSpaceOnUse">
<stop stop-color="#1B1464"/>
<stop offset="0.1244" stop-color="#1A1A67"/>
<stop offset="0.2823" stop-color="#18296F"/>
<stop offset="0.4583" stop-color="#14437C"/>
<stop offset="0.6475" stop-color="#0E688E"/>
<stop offset="0.845" stop-color="#0796A5"/>
<stop offset="1" stop-color="#00BFBA"/>
</linearGradient>
</defs>
</svg>
