<svg width="42" height="49" viewBox="0 0 42 49" fill="none" xmlns="http://www.w3.org/2000/svg">
<path d="M37.0493 30.5392L12.1129 39.5058C11.7946 39.6119 11.4762 39.5588 11.2109 39.2935L9.14176 35.4204C8.71731 34.996 7.60313 34.8899 8.13369 34.6246L40.6041 20.5647C41.1347 20.2994 41.7713 20.7238 41.7713 21.3075V23.6419C41.8244 26.7723 39.9144 29.4781 37.0493 30.5392Z" fill="#E6E6E6"/>
<path d="M1.6078 29.6377L0.758896 23.5893C0.652783 23.2179 0.865008 22.8465 1.18335 22.6343L40.6041 2.04844C41.1877 1.7301 41.8244 2.15455 41.8244 2.79123L41.3469 9.58243C41.3469 9.90076 41.4 10.0599 41.1347 10.2191L2.82809 30.1682C2.35058 30.4335 1.76696 30.1682 1.6078 29.6377Z" fill="#E6E6E6"/>
<path d="M28.6665 2.41761L1.76697 12.6575C1.23641 12.8697 0.599731 12.4983 0.599731 11.8616V5.81321C0.599731 5.38876 0.865012 5.07043 1.28946 5.01737L22.9895 0.825928C23.0425 0.825928 23.0956 0.825928 23.1486 0.825928H28.3481C29.2501 0.825928 29.5154 2.09928 28.6665 2.41761Z" fill="#E6E6E6"/>
<path d="M41.8244 21.3607V24.8624C41.8244 27.356 40.8164 29.7436 39.0655 31.4944L21.8222 48.5785C21.5039 48.8969 20.9733 48.8969 20.655 48.5785L17.0472 45.0237C16.7288 44.7054 16.7288 44.1748 17.0472 43.8565L40.3919 20.777C40.9225 20.2465 41.8244 20.6179 41.8244 21.3607Z" fill="url(#paint0_linear_1333_4975)"/>
<path d="M41.8244 2.84419V9.15789C41.8244 9.90067 41.5592 10.5904 41.0286 11.0679L12.4313 39.2938C12.1129 39.6122 11.5824 39.6122 11.264 39.2938L8.50512 36.588C7.70927 35.7921 7.70927 34.5188 8.50512 33.7229L40.3919 2.20752C40.9225 1.67696 41.8244 2.10141 41.8244 2.84419Z" fill="url(#paint1_linear_1333_4975)"/>
<path d="M31.1601 2.26048L3.04032 30.0619C2.72198 30.3803 2.19142 30.3803 1.87308 30.0619C1.07724 29.2661 0.599731 28.205 0.599731 27.0908V23.3769C0.599731 23.1646 0.705844 22.9524 0.865013 22.7932L22.8303 1.04018C22.9895 0.881015 23.2017 0.774902 23.4139 0.774902H30.5765C31.3193 0.827959 31.6907 1.72991 31.1601 2.26048Z" fill="url(#paint2_linear_1333_4975)"/>
<path d="M12.3782 2.26085L2.03225 12.5007C1.50169 13.0313 0.599731 12.6599 0.599731 11.9171V5.55034C0.599731 5.33811 0.705844 5.12589 0.865013 4.96672L4.89729 1.09362C5.05646 0.934447 5.26868 0.88139 5.48091 0.88139H11.7946C12.5374 0.828334 12.9088 1.73029 12.3782 2.26085Z" fill="url(#paint3_linear_1333_4975)"/>
<defs>
<linearGradient id="paint0_linear_1333_4975" x1="-4.17618" y1="10.3797" x2="37.4804" y2="39.0586" gradientUnits="userSpaceOnUse">
<stop stop-color="#1B1464"/>
<stop offset="0.1244" stop-color="#1A1A67"/>
<stop offset="0.2823" stop-color="#18296F"/>
<stop offset="0.4583" stop-color="#14437C"/>
<stop offset="0.6475" stop-color="#0E688E"/>
<stop offset="0.845" stop-color="#0796A5"/>
<stop offset="1" stop-color="#00BFBA"/>
</linearGradient>
<linearGradient id="paint1_linear_1333_4975" x1="0.809946" y1="3.13738" x2="42.4665" y2="31.8163" gradientUnits="userSpaceOnUse">
<stop stop-color="#1B1464"/>
<stop offset="0.1244" stop-color="#1A1A67"/>
<stop offset="0.2823" stop-color="#18296F"/>
<stop offset="0.4583" stop-color="#14437C"/>
<stop offset="0.6475" stop-color="#0E688E"/>
<stop offset="0.845" stop-color="#0796A5"/>
<stop offset="1" stop-color="#00BFBA"/>
</linearGradient>
<linearGradient id="paint2_linear_1333_4975" x1="0.0653486" y1="4.21889" x2="41.7219" y2="32.8978" gradientUnits="userSpaceOnUse">
<stop stop-color="#1B1464"/>
<stop offset="0.1244" stop-color="#1A1A67"/>
<stop offset="0.2823" stop-color="#18296F"/>
<stop offset="0.4583" stop-color="#14437C"/>
<stop offset="0.6475" stop-color="#0E688E"/>
<stop offset="0.845" stop-color="#0796A5"/>
<stop offset="1" stop-color="#00BFBA"/>
</linearGradient>
<linearGradient id="paint3_linear_1333_4975" x1="0.986299" y1="2.8815" x2="42.6429" y2="31.5604" gradientUnits="userSpaceOnUse">
<stop stop-color="#1B1464"/>
<stop offset="0.1244" stop-color="#1A1A67"/>
<stop offset="0.2823" stop-color="#18296F"/>
<stop offset="0.4583" stop-color="#14437C"/>
<stop offset="0.6475" stop-color="#0E688E"/>
<stop offset="0.845" stop-color="#0796A5"/>
<stop offset="1" stop-color="#00BFBA"/>
</linearGradient>
</defs>
</svg>
