<svg width="217" height="59" viewBox="0 0 217 59" fill="none" xmlns="http://www.w3.org/2000/svg">
<path d="M60.0383 6.62981H62.1871V10.6122H66.4847V6.62981H68.6335V16.6574H66.4847V12.3885H62.1871V16.6574H60.0383V6.62981ZM73.9304 16.8293C73.4147 16.8293 72.9229 16.7529 72.4549 16.6001C71.9965 16.4378 71.5954 16.1943 71.2516 15.8696C70.9078 15.5449 70.6356 15.139 70.4351 14.6519C70.2345 14.1649 70.1342 13.5919 70.1342 12.9329V12.6464C70.1342 12.0256 70.2345 11.4813 70.4351 11.0133C70.6356 10.5454 70.9078 10.1538 71.2516 9.83865C71.5954 9.5235 71.9965 9.28952 72.4549 9.13672C72.9229 8.97437 73.4147 8.89319 73.9304 8.89319C74.4461 8.89319 74.9332 8.97437 75.3916 9.13672C75.85 9.28952 76.2511 9.5235 76.5949 9.83865C76.9483 10.1538 77.2252 10.5454 77.4258 11.0133C77.6263 11.4813 77.7266 12.0256 77.7266 12.6464V12.9329C77.7266 13.5823 77.6263 14.1505 77.4258 14.6376C77.2252 15.1246 76.9483 15.5305 76.5949 15.8552C76.2511 16.1799 75.85 16.4235 75.3916 16.5858C74.9332 16.7482 74.4461 16.8293 73.9304 16.8293ZM73.9304 15.2249C74.4652 15.2249 74.9093 15.0339 75.2627 14.6519C75.6256 14.2699 75.807 13.6969 75.807 12.9329V12.6464C75.807 11.9492 75.6256 11.4192 75.2627 11.0563C74.9093 10.6838 74.4652 10.4976 73.9304 10.4976C73.3861 10.4976 72.9372 10.6838 72.5839 11.0563C72.2305 11.4192 72.0538 11.9492 72.0538 12.6464V12.9329C72.0538 13.7065 72.2305 14.2842 72.5839 14.6662C72.9372 15.0387 73.3861 15.2249 73.9304 15.2249ZM78.9386 9.06509H82.7491C83.2362 9.06509 83.6516 9.11762 83.9954 9.22267C84.3488 9.31817 84.6401 9.45665 84.8693 9.6381C85.0985 9.81955 85.2656 10.0344 85.3706 10.2827C85.4757 10.531 85.5282 10.8032 85.5282 11.0993C85.5282 11.4526 85.4184 11.7869 85.1987 12.102C84.9886 12.4076 84.6974 12.613 84.3249 12.718C84.7929 12.8326 85.1558 13.0523 85.4136 13.377C85.681 13.6921 85.8147 14.0646 85.8147 14.4943C85.8147 15.1533 85.5855 15.6786 85.1271 16.0701C84.6687 16.4617 83.9716 16.6574 83.0356 16.6574H78.9386V9.06509ZM82.6632 15.139C83.0929 15.139 83.4081 15.0769 83.6086 14.9527C83.8187 14.819 83.9238 14.6089 83.9238 14.3224C83.9238 14.0359 83.8235 13.8306 83.623 13.7065C83.432 13.5728 83.112 13.5059 82.6632 13.5059H80.8296V15.139H82.6632ZM82.477 12.102C82.9163 12.102 83.2171 12.04 83.3794 11.9158C83.5513 11.7917 83.6373 11.6007 83.6373 11.3428C83.6373 11.0945 83.5513 10.9083 83.3794 10.7841C83.2075 10.6504 82.9067 10.5836 82.477 10.5836H80.8296V12.102H82.477ZM90.4732 16.8293C89.9575 16.8293 89.4657 16.7529 88.9977 16.6001C88.5393 16.4378 88.1382 16.1943 87.7944 15.8696C87.4506 15.5449 87.1784 15.139 86.9779 14.6519C86.7773 14.1649 86.677 13.5919 86.677 12.9329V12.6464C86.677 12.0256 86.7773 11.4813 86.9779 11.0133C87.1784 10.5454 87.4506 10.1538 87.7944 9.83865C88.1382 9.5235 88.5393 9.28952 88.9977 9.13672C89.4657 8.97437 89.9575 8.89319 90.4732 8.89319C90.9889 8.89319 91.476 8.97437 91.9344 9.13672C92.3928 9.28952 92.7939 9.5235 93.1377 9.83865C93.491 10.1538 93.768 10.5454 93.9686 11.0133C94.1691 11.4813 94.2694 12.0256 94.2694 12.6464V12.9329C94.2694 13.5823 94.1691 14.1505 93.9686 14.6376C93.768 15.1246 93.491 15.5305 93.1377 15.8552C92.7939 16.1799 92.3928 16.4235 91.9344 16.5858C91.476 16.7482 90.9889 16.8293 90.4732 16.8293ZM90.4732 15.2249C91.008 15.2249 91.4521 15.0339 91.8054 14.6519C92.1684 14.2699 92.3498 13.6969 92.3498 12.9329V12.6464C92.3498 11.9492 92.1684 11.4192 91.8054 11.0563C91.4521 10.6838 91.008 10.4976 90.4732 10.4976C89.9288 10.4976 89.48 10.6838 89.1266 11.0563C88.7733 11.4192 88.5966 11.9492 88.5966 12.6464V12.9329C88.5966 13.7065 88.7733 14.2842 89.1266 14.6662C89.48 15.0387 89.9288 15.2249 90.4732 15.2249ZM98.8478 16.8293C98.3226 16.8293 97.8308 16.7482 97.3723 16.5858C96.9235 16.4235 96.5319 16.1799 96.1977 15.8552C95.8634 15.5305 95.6008 15.1246 95.4098 14.6376C95.2188 14.1505 95.1233 13.5823 95.1233 12.9329V12.6464C95.1233 12.0352 95.2236 11.4956 95.4241 11.0276C95.6247 10.5597 95.8921 10.1681 96.2263 9.85298C96.5701 9.53782 96.9665 9.29907 97.4153 9.13672C97.8642 8.97437 98.3417 8.89319 98.8478 8.89319C99.3826 8.89319 99.8554 8.96482 100.266 9.10807C100.686 9.25132 101.04 9.4471 101.326 9.6954C101.613 9.9437 101.837 10.235 101.999 10.5692C102.162 10.9035 102.257 11.2616 102.286 11.6436H100.366C100.29 11.2903 100.132 11.0133 99.8936 10.8128C99.6644 10.6027 99.3158 10.4976 98.8478 10.4976C98.5995 10.4976 98.3656 10.5406 98.1459 10.6265C97.9358 10.7125 97.7448 10.8462 97.5729 11.0276C97.4105 11.1995 97.2816 11.4192 97.1861 11.6866C97.0906 11.954 97.0429 12.2739 97.0429 12.6464V12.9329C97.0429 13.334 97.0858 13.6826 97.1718 13.9786C97.2673 14.2651 97.3962 14.5039 97.5586 14.6949C97.7209 14.8763 97.9119 15.01 98.1316 15.096C98.3512 15.1819 98.59 15.2249 98.8478 15.2249C99.2203 15.2249 99.5402 15.1294 99.8076 14.9384C100.085 14.7379 100.271 14.4514 100.366 14.0789H102.286C102.238 14.4991 102.119 14.8811 101.928 15.2249C101.746 15.5592 101.503 15.8457 101.197 16.0844C100.901 16.3232 100.553 16.5094 100.151 16.6431C99.7503 16.7673 99.3158 16.8293 98.8478 16.8293ZM103.438 9.06509H105.329V13.9357L108.71 9.06509H110.457V16.6574H108.566V11.7869L105.186 16.6574H103.438V9.06509ZM115.476 16.8293C114.941 16.8293 114.445 16.7386 113.986 16.5572C113.538 16.3757 113.146 16.1035 112.812 15.7406C112.478 15.3682 112.215 14.9145 112.024 14.3797C111.842 13.8354 111.752 13.2051 111.752 12.4888V12.1593C111.752 11.2998 111.814 10.5358 111.938 9.8673C112.072 9.19879 112.287 8.63056 112.583 8.16261C112.888 7.69465 113.289 7.33175 113.786 7.07389C114.292 6.80649 114.922 6.65369 115.677 6.61549C115.973 6.60594 116.264 6.59639 116.551 6.58684C116.837 6.57729 117.109 6.56296 117.367 6.54386C117.625 6.52476 117.859 6.49611 118.069 6.45791C118.279 6.41016 118.465 6.34808 118.628 6.27168V7.94773C118.475 8.03368 118.188 8.10531 117.768 8.16261C117.358 8.21991 116.732 8.25333 115.892 8.26288C115.462 8.27243 115.089 8.32496 114.774 8.42046C114.469 8.50641 114.211 8.64966 114.001 8.85022C113.8 9.04122 113.638 9.2943 113.514 9.60945C113.399 9.9246 113.318 10.3114 113.27 10.7698C113.49 10.34 113.819 9.99145 114.259 9.72405C114.698 9.45665 115.271 9.32295 115.978 9.32295C116.455 9.32295 116.89 9.39935 117.281 9.55215C117.673 9.6954 118.012 9.91028 118.298 10.1968C118.585 10.4833 118.804 10.8366 118.957 11.2568C119.12 11.6771 119.201 12.1641 119.201 12.718V12.9902C119.201 13.5919 119.105 14.1314 118.914 14.6089C118.733 15.0864 118.475 15.4923 118.141 15.8266C117.806 16.1513 117.41 16.3996 116.952 16.5715C116.503 16.7434 116.011 16.8293 115.476 16.8293ZM115.476 15.2249C116.049 15.2249 116.493 15.0387 116.808 14.6662C117.124 14.2842 117.281 13.7447 117.281 13.0475V12.761C117.281 12.1593 117.119 11.6866 116.794 11.3428C116.469 10.999 116.03 10.8271 115.476 10.8271C114.932 10.8271 114.493 10.999 114.158 11.3428C113.834 11.6866 113.671 12.1593 113.671 12.761V13.0188C113.671 13.3626 113.714 13.673 113.8 13.95C113.896 14.2269 114.025 14.4609 114.187 14.6519C114.349 14.8334 114.54 14.9766 114.76 15.0817C114.98 15.1772 115.218 15.2249 115.476 15.2249ZM120.415 9.06509H122.305V13.9357L125.686 9.06509H127.434V16.6574H125.543V11.7869L122.162 16.6574H120.415V9.06509ZM129.015 9.06509H130.777V10.1825C130.968 9.83865 131.268 9.53782 131.679 9.27997C132.09 9.02212 132.61 8.89319 133.241 8.89319C134.253 8.89319 135.041 9.20834 135.604 9.83865C136.177 10.4594 136.464 11.3953 136.464 12.6464V12.9329C136.464 14.2413 136.172 15.2201 135.59 15.8696C135.017 16.5094 134.234 16.8293 133.241 16.8293C132.725 16.8293 132.266 16.7195 131.865 16.4999C131.474 16.2707 131.154 15.9746 130.906 15.6117V19.5225H129.015V9.06509ZM132.797 15.2249C133.293 15.2249 133.709 15.0387 134.043 14.6662C134.377 14.2842 134.544 13.7065 134.544 12.9329V12.6464C134.544 11.9301 134.382 11.3953 134.057 11.042C133.732 10.6791 133.312 10.4976 132.797 10.4976C132.252 10.4976 131.799 10.6552 131.436 10.9703C131.082 11.2759 130.906 11.7391 130.906 12.3599V13.2194C130.906 13.8975 131.077 14.4036 131.421 14.7379C131.775 15.0626 132.233 15.2249 132.797 15.2249ZM141.051 16.8293C140.526 16.8293 140.034 16.7482 139.576 16.5858C139.127 16.4235 138.735 16.1799 138.401 15.8552C138.067 15.5305 137.804 15.1246 137.613 14.6376C137.422 14.1505 137.327 13.5823 137.327 12.9329V12.6464C137.327 12.0352 137.427 11.4956 137.627 11.0276C137.828 10.5597 138.095 10.1681 138.43 9.85298C138.773 9.53782 139.17 9.29907 139.619 9.13672C140.068 8.97437 140.545 8.89319 141.051 8.89319C141.586 8.89319 142.059 8.96482 142.469 9.10807C142.89 9.25132 143.243 9.4471 143.529 9.6954C143.816 9.9437 144.04 10.235 144.203 10.5692C144.365 10.9035 144.461 11.2616 144.489 11.6436H142.57C142.493 11.2903 142.336 11.0133 142.097 10.8128C141.868 10.6027 141.519 10.4976 141.051 10.4976C140.803 10.4976 140.569 10.5406 140.349 10.6265C140.139 10.7125 139.948 10.8462 139.776 11.0276C139.614 11.1995 139.485 11.4192 139.389 11.6866C139.294 11.954 139.246 12.2739 139.246 12.6464V12.9329C139.246 13.334 139.289 13.6826 139.375 13.9786C139.471 14.2651 139.6 14.5039 139.762 14.6949C139.924 14.8763 140.115 15.01 140.335 15.096C140.555 15.1819 140.793 15.2249 141.051 15.2249C141.424 15.2249 141.744 15.1294 142.011 14.9384C142.288 14.7379 142.474 14.4514 142.57 14.0789H144.489C144.441 14.4991 144.322 14.8811 144.131 15.2249C143.95 15.5592 143.706 15.8457 143.401 16.0844C143.104 16.3232 142.756 16.5094 142.355 16.6431C141.954 16.7673 141.519 16.8293 141.051 16.8293ZM145.641 9.06509H147.532V12.0447H148.249L150.569 9.06509H152.661L149.796 12.6607L152.804 16.6574H150.541L148.249 13.5346H147.532V16.6574H145.641V9.06509ZM153.738 9.06509H155.629V13.9357L159.01 9.06509H160.757V16.6574H158.866V11.7869L155.486 16.6574H153.738V9.06509ZM162.338 9.06509H164.229V13.9357L167.61 9.06509H169.357V16.6574H167.466V11.7869L164.086 16.6574H162.338V9.06509ZM165.848 8.27721C164.998 8.27721 164.377 8.09576 163.985 7.73285C163.603 7.36995 163.412 6.83514 163.412 6.12843H165.088C165.088 6.50089 165.151 6.76351 165.275 6.91632C165.408 7.05957 165.599 7.13119 165.848 7.13119C166.115 7.13119 166.311 7.05957 166.435 6.91632C166.569 6.76351 166.636 6.50089 166.636 6.12843H168.283C168.283 6.83514 168.087 7.36995 167.696 7.73285C167.314 8.09576 166.698 8.27721 165.848 8.27721ZM60.0383 23.6298H63.9061C65.2623 23.6298 66.2698 23.9306 66.9288 24.5323C67.5877 25.1244 67.9172 25.9218 67.9172 26.9246C67.9172 27.9274 67.5877 28.7296 66.9288 29.3312C66.2698 29.9233 65.2623 30.2194 63.9061 30.2194H62.1871V33.6574H60.0383V23.6298ZM63.6913 28.4431C64.4553 28.4431 64.9901 28.3141 65.2957 28.0563C65.6108 27.7984 65.7684 27.4212 65.7684 26.9246C65.7684 26.4375 65.6108 26.0651 65.2957 25.8072C64.9901 25.5398 64.4553 25.4061 63.6913 25.4061H62.1871V28.4431H63.6913ZM72.4335 33.8293C71.9178 33.8293 71.426 33.7529 70.9581 33.6001C70.4996 33.4378 70.0985 33.199 69.7547 32.8839C69.4109 32.5592 69.1388 32.1533 68.9382 31.6662C68.7377 31.1696 68.6374 30.5919 68.6374 29.9329V29.6464C68.6374 29.0161 68.7329 28.4669 68.9239 27.999C69.1149 27.531 69.3775 27.1443 69.7118 26.8387C70.046 26.5235 70.4328 26.2895 70.8721 26.1367C71.3114 25.9744 71.7841 25.8932 72.2903 25.8932C73.4841 25.8932 74.3913 26.2083 75.0121 26.8387C75.6328 27.469 75.9432 28.381 75.9432 29.5748V30.377H70.5713C70.5808 30.7112 70.6381 31.0025 70.7432 31.2508C70.8482 31.4896 70.9867 31.6853 71.1586 31.8381C71.3305 31.9909 71.5263 32.1055 71.7459 32.1819C71.9751 32.2488 72.2043 32.2822 72.4335 32.2822C72.9206 32.2822 73.2883 32.2106 73.5366 32.0673C73.7849 31.9241 73.9616 31.714 74.0666 31.437H75.8C75.6472 32.2297 75.2699 32.8266 74.6683 33.2277C74.0666 33.6288 73.3217 33.8293 72.4335 33.8293ZM72.3619 27.4403C72.1423 27.4403 71.9226 27.469 71.703 27.5263C71.4929 27.5836 71.3066 27.6743 71.1443 27.7984C70.9819 27.9226 70.8482 28.0897 70.7432 28.2998C70.6381 28.5099 70.5808 28.763 70.5713 29.0591H74.1096C74.1 28.7439 74.0475 28.4813 73.952 28.2712C73.8661 28.0611 73.7419 27.8939 73.5796 27.7698C73.4268 27.6456 73.2453 27.5597 73.0352 27.5119C72.8251 27.4642 72.6007 27.4403 72.3619 27.4403ZM80.5284 33.8293C80.0031 33.8293 79.5113 33.7482 79.0529 33.5858C78.604 33.4235 78.2125 33.1799 77.8782 32.8552C77.544 32.5305 77.2814 32.1246 77.0904 31.6376C76.8993 31.1505 76.8038 30.5823 76.8038 29.9329V29.6464C76.8038 29.0352 76.9041 28.4956 77.1047 28.0276C77.3052 27.5597 77.5726 27.1681 77.9069 26.853C78.2507 26.5378 78.647 26.2991 79.0959 26.1367C79.5447 25.9744 80.0222 25.8932 80.5284 25.8932C81.0632 25.8932 81.5359 25.9648 81.9466 26.1081C82.3668 26.2513 82.7201 26.4471 83.0067 26.6954C83.2932 26.9437 83.5176 27.235 83.6799 27.5692C83.8423 27.9035 83.9378 28.2616 83.9664 28.6436H82.0469C81.9705 28.2903 81.8129 28.0133 81.5741 27.8128C81.3449 27.6027 80.9964 27.4976 80.5284 27.4976C80.2801 27.4976 80.0461 27.5406 79.8265 27.6265C79.6164 27.7125 79.4254 27.8462 79.2535 28.0276C79.0911 28.1995 78.9622 28.4192 78.8667 28.6866C78.7712 28.954 78.7234 29.2739 78.7234 29.6464V29.9329C78.7234 30.334 78.7664 30.6826 78.8523 30.9786C78.9479 31.2651 79.0768 31.5039 79.2391 31.6949C79.4015 31.8763 79.5925 32.01 79.8121 32.096C80.0318 32.1819 80.2705 32.2249 80.5284 32.2249C80.9009 32.2249 81.2208 32.1294 81.4882 31.9384C81.7651 31.7379 81.9514 31.4514 82.0469 31.0789H83.9664C83.9187 31.4991 83.7993 31.8811 83.6083 32.2249C83.4269 32.5592 83.1833 32.8457 82.8777 33.0844C82.5817 33.3232 82.2331 33.5094 81.832 33.6431C81.4309 33.7673 80.9964 33.8293 80.5284 33.8293ZM85.1186 26.0651H91.9947V33.6574H90.1038V27.6409H87.0095V33.6574H85.1186V26.0651ZM93.5649 26.0651H95.4558V30.9357L98.8365 26.0651H100.584V33.6574H98.6933V28.7869L95.3125 33.6574H93.5649V26.0651ZM102.165 26.0651H103.927V27.1825C104.118 26.8387 104.419 26.5378 104.83 26.28C105.24 26.0221 105.761 25.8932 106.391 25.8932C107.403 25.8932 108.191 26.2083 108.755 26.8387C109.328 27.4594 109.614 28.3953 109.614 29.6464V29.9329C109.614 31.2413 109.323 32.2201 108.74 32.8696C108.167 33.5094 107.384 33.8293 106.391 33.8293C105.875 33.8293 105.417 33.7195 105.016 33.4999C104.624 33.2707 104.304 32.9746 104.056 32.6117V36.5225H102.165V26.0651ZM105.947 32.2249C106.443 32.2249 106.859 32.0387 107.193 31.6662C107.527 31.2842 107.695 30.7065 107.695 29.9329V29.6464C107.695 28.9301 107.532 28.3953 107.207 28.042C106.883 27.6791 106.463 27.4976 105.947 27.4976C105.403 27.4976 104.949 27.6552 104.586 27.9703C104.233 28.2759 104.056 28.7391 104.056 29.3599V30.2194C104.056 30.8975 104.228 31.4036 104.572 31.7379C104.925 32.0626 105.383 32.2249 105.947 32.2249ZM113.113 33.8293C112.702 33.8293 112.339 33.772 112.024 33.6574C111.709 33.5333 111.442 33.3662 111.222 33.1561C111.002 32.9364 110.835 32.6833 110.721 32.3968C110.606 32.1008 110.549 31.7808 110.549 31.437C110.549 29.909 111.456 29.145 113.27 29.145H115.534V28.7869C115.534 28.2903 115.419 27.9417 115.19 27.7411C114.97 27.5406 114.617 27.4403 114.13 27.4403C113.7 27.4403 113.39 27.5167 113.199 27.6695C113.008 27.8128 112.898 27.9942 112.869 28.2139H110.978C110.997 27.8892 111.079 27.5836 111.222 27.2971C111.375 27.0106 111.585 26.767 111.852 26.5665C112.129 26.3564 112.463 26.194 112.855 26.0794C113.247 25.9553 113.695 25.8932 114.202 25.8932C114.689 25.8932 115.128 25.9457 115.519 26.0508C115.921 26.1558 116.26 26.3277 116.537 26.5665C116.823 26.7957 117.043 27.0965 117.195 27.469C117.348 27.8414 117.425 28.2903 117.425 28.8155V31.7235C117.425 32.1246 117.429 32.478 117.439 32.7836C117.458 33.0797 117.487 33.3709 117.525 33.6574H115.763C115.725 33.4473 115.701 33.2898 115.691 33.1847C115.691 33.0701 115.691 32.903 115.691 32.6833C115.481 32.9889 115.161 33.2563 114.732 33.4855C114.311 33.7147 113.772 33.8293 113.113 33.8293ZM113.7 32.3682C113.929 32.3682 114.154 32.3395 114.373 32.2822C114.593 32.2154 114.789 32.1199 114.961 31.9957C115.133 31.862 115.271 31.6949 115.376 31.4943C115.481 31.2938 115.534 31.0598 115.534 30.7924V30.4343H113.629C113.266 30.4343 112.979 30.5202 112.769 30.6921C112.568 30.8545 112.468 31.0789 112.468 31.3654C112.468 31.671 112.573 31.9145 112.783 32.096C112.993 32.2774 113.299 32.3682 113.7 32.3682ZM120.654 27.6409H118.233V26.0651H124.966V27.6409H122.545V33.6574H120.654V27.6409ZM129.263 33.8293C128.747 33.8293 128.256 33.7529 127.788 33.6001C127.329 33.4378 126.928 33.1943 126.584 32.8696C126.241 32.5449 125.968 32.139 125.768 31.6519C125.567 31.1649 125.467 30.5919 125.467 29.9329V29.6464C125.467 29.0256 125.567 28.4813 125.768 28.0133C125.968 27.5454 126.241 27.1538 126.584 26.8387C126.928 26.5235 127.329 26.2895 127.788 26.1367C128.256 25.9744 128.747 25.8932 129.263 25.8932C129.779 25.8932 130.266 25.9744 130.724 26.1367C131.183 26.2895 131.584 26.5235 131.928 26.8387C132.281 27.1538 132.558 27.5454 132.758 28.0133C132.959 28.4813 133.059 29.0256 133.059 29.6464V29.9329C133.059 30.5823 132.959 31.1505 132.758 31.6376C132.558 32.1246 132.281 32.5305 131.928 32.8552C131.584 33.1799 131.183 33.4235 130.724 33.5858C130.266 33.7482 129.779 33.8293 129.263 33.8293ZM129.263 32.2249C129.798 32.2249 130.242 32.0339 130.595 31.6519C130.958 31.2699 131.14 30.6969 131.14 29.9329V29.6464C131.14 28.9492 130.958 28.4192 130.595 28.0563C130.242 27.6838 129.798 27.4976 129.263 27.4976C128.719 27.4976 128.27 27.6838 127.917 28.0563C127.563 28.4192 127.387 28.9492 127.387 29.6464V29.9329C127.387 30.7065 127.563 31.2842 127.917 31.6662C128.27 32.0387 128.719 32.2249 129.263 32.2249ZM134.271 26.0651H136.033V27.1825C136.224 26.8387 136.525 26.5378 136.936 26.28C137.346 26.0221 137.867 25.8932 138.497 25.8932C139.51 25.8932 140.297 26.2083 140.861 26.8387C141.434 27.4594 141.72 28.3953 141.72 29.6464V29.9329C141.72 31.2413 141.429 32.2201 140.847 32.8696C140.274 33.5094 139.49 33.8293 138.497 33.8293C137.982 33.8293 137.523 33.7195 137.122 33.4999C136.73 33.2707 136.411 32.9746 136.162 32.6117V36.5225H134.271V26.0651ZM138.053 32.2249C138.55 32.2249 138.965 32.0387 139.299 31.6662C139.634 31.2842 139.801 30.7065 139.801 29.9329V29.6464C139.801 28.9301 139.638 28.3953 139.314 28.042C138.989 27.6791 138.569 27.4976 138.053 27.4976C137.509 27.4976 137.055 27.6552 136.692 27.9703C136.339 28.2759 136.162 28.7391 136.162 29.3599V30.2194C136.162 30.8975 136.334 31.4036 136.678 31.7379C137.031 32.0626 137.49 32.2249 138.053 32.2249ZM142.941 26.0651H144.832V29.0018H148.07V26.0651H149.961V33.6574H148.07V30.5775H144.832V33.6574H142.941V26.0651ZM151.542 26.0651H153.432V28.615H154.765C156.723 28.615 157.701 29.4554 157.701 31.1362C157.701 31.5087 157.644 31.8525 157.529 32.1676C157.424 32.4732 157.253 32.7359 157.014 32.9555C156.775 33.1752 156.469 33.3471 156.097 33.4712C155.725 33.5954 155.28 33.6574 154.765 33.6574H151.542V26.0651ZM154.55 32.139C155.008 32.139 155.333 32.0578 155.524 31.8954C155.715 31.7235 155.81 31.4705 155.81 31.1362C155.81 30.802 155.71 30.5537 155.51 30.3913C155.319 30.2194 154.999 30.1334 154.55 30.1334H153.432V32.139H154.55ZM158.532 26.0651H160.423V33.6574H158.532V26.0651ZM162.002 26.0651H163.893V30.9357L167.274 26.0651H169.022V33.6574H167.131V28.7869L163.75 33.6574H162.002V26.0651ZM165.512 25.2772C164.662 25.2772 164.041 25.0958 163.65 24.7329C163.268 24.3699 163.077 23.8351 163.077 23.1284H164.753C164.753 23.5009 164.815 23.7635 164.939 23.9163C165.073 24.0596 165.264 24.1312 165.512 24.1312C165.779 24.1312 165.975 24.0596 166.099 23.9163C166.233 23.7635 166.3 23.5009 166.3 23.1284H167.947C167.947 23.8351 167.751 24.3699 167.36 24.7329C166.978 25.0958 166.362 25.2772 165.512 25.2772ZM63.548 50.8293C62.2206 50.8293 61.2082 50.5333 60.5111 49.9412C59.8139 49.3395 59.4415 48.5278 59.3937 47.5059H61.6284C61.6762 47.993 61.8529 48.3702 62.1585 48.6376C62.4641 48.8954 62.9273 49.0244 63.548 49.0244C64.2165 49.0244 64.7036 48.9002 65.0092 48.6519C65.3148 48.4036 65.4676 48.0646 65.4676 47.6348C65.4676 47.2051 65.3196 46.866 65.0235 46.6177C64.737 46.3599 64.2213 46.231 63.4764 46.231H62.4163V44.7698H63.4764C63.7724 44.7698 64.0255 44.7364 64.2356 44.6695C64.4457 44.5931 64.6129 44.4976 64.737 44.383C64.8707 44.2589 64.9662 44.1156 65.0235 43.9533C65.0808 43.7909 65.1095 43.619 65.1095 43.4375C65.1095 43.0842 64.9853 42.8025 64.737 42.5924C64.4887 42.3727 64.0924 42.2629 63.548 42.2629C62.9941 42.2629 62.5787 42.3679 62.3017 42.578C62.0343 42.7786 61.8815 43.1081 61.8433 43.5665H59.6086C59.6563 42.5542 60.0001 41.7854 60.64 41.2601C61.2799 40.7253 62.2492 40.4579 63.548 40.4579C64.8373 40.4579 65.7923 40.711 66.4131 41.2171C67.0338 41.7138 67.3442 42.4061 67.3442 43.2943C67.3442 43.8196 67.2153 44.2684 66.9574 44.6409C66.6996 45.0038 66.3223 45.2664 65.8257 45.4287C66.4369 45.572 66.9001 45.849 67.2153 46.2596C67.54 46.6607 67.7023 47.186 67.7023 47.8354C67.7023 48.2747 67.6164 48.6806 67.4445 49.053C67.2726 49.4159 67.0147 49.7311 66.6709 49.9985C66.3271 50.2563 65.8926 50.4617 65.3673 50.6145C64.8516 50.7577 64.2452 50.8293 63.548 50.8293ZM71.3012 50.8293C70.8905 50.8293 70.5276 50.772 70.2125 50.6574C69.8973 50.5333 69.6299 50.3662 69.4103 50.1561C69.1906 49.9364 69.0235 49.6833 68.9089 49.3968C68.7943 49.1008 68.737 48.7808 68.737 48.437C68.737 46.909 69.6442 46.145 71.4588 46.145H73.7221V45.7869C73.7221 45.2903 73.6075 44.9417 73.3783 44.7411C73.1587 44.5406 72.8053 44.4403 72.3183 44.4403C71.8885 44.4403 71.5781 44.5167 71.3871 44.6695C71.1961 44.8128 71.0863 44.9942 71.0577 45.2139H69.1667C69.1858 44.8892 69.267 44.5836 69.4103 44.2971C69.5631 44.0106 69.7732 43.767 70.0406 43.5665C70.3175 43.3564 70.6518 43.194 71.0433 43.0794C71.4349 42.9553 71.8837 42.8932 72.3899 42.8932C72.877 42.8932 73.3163 42.9457 73.7078 43.0508C74.1089 43.1558 74.448 43.3277 74.7249 43.5665C75.0114 43.7957 75.2311 44.0965 75.3839 44.469C75.5367 44.8414 75.6131 45.2903 75.6131 45.8155V48.7235C75.6131 49.1246 75.6178 49.478 75.6274 49.7836C75.6465 50.0797 75.6751 50.3709 75.7133 50.6574H73.9513C73.9131 50.4473 73.8893 50.2898 73.8797 50.1847C73.8797 50.0701 73.8797 49.903 73.8797 49.6833C73.6696 49.9889 73.3497 50.2563 72.9199 50.4855C72.4997 50.7147 71.9601 50.8293 71.3012 50.8293ZM71.8885 49.3682C72.1177 49.3682 72.3422 49.3395 72.5618 49.2822C72.7815 49.2154 72.9772 49.1199 73.1491 48.9957C73.321 48.862 73.4595 48.6949 73.5646 48.4943C73.6696 48.2938 73.7221 48.0598 73.7221 47.7924V47.4343H71.8169C71.454 47.4343 71.1675 47.5202 70.9574 47.6921C70.7568 47.8545 70.6566 48.0789 70.6566 48.3654C70.6566 48.671 70.7616 48.9145 70.9717 49.096C71.1818 49.2774 71.4874 49.3682 71.8885 49.3682ZM77.12 43.0651H80.9305C81.4176 43.0651 81.833 43.1176 82.1768 43.2227C82.5302 43.3182 82.8214 43.4566 83.0506 43.6381C83.2798 43.8196 83.447 44.0344 83.552 44.2827C83.6571 44.531 83.7096 44.8032 83.7096 45.0993C83.7096 45.4526 83.5998 45.7869 83.3801 46.102C83.17 46.4076 82.8787 46.613 82.5063 46.718C82.9742 46.8326 83.3371 47.0523 83.595 47.377C83.8624 47.6921 83.9961 48.0646 83.9961 48.4943C83.9961 49.1533 83.7669 49.6786 83.3085 50.0701C82.8501 50.4617 82.1529 50.6574 81.217 50.6574H77.12V43.0651ZM80.8446 49.139C81.2743 49.139 81.5895 49.0769 81.79 48.9527C82.0001 48.819 82.1052 48.6089 82.1052 48.3224C82.1052 48.0359 82.0049 47.8306 81.8043 47.7065C81.6133 47.5728 81.2934 47.5059 80.8446 47.5059H79.0109V49.139H80.8446ZM80.6583 46.102C81.0976 46.102 81.3985 46.04 81.5608 45.9158C81.7327 45.7917 81.8187 45.6007 81.8187 45.3428C81.8187 45.0945 81.7327 44.9083 81.5608 44.7841C81.3889 44.6504 81.0881 44.5836 80.6583 44.5836H79.0109V46.102H80.6583ZM88.6546 50.8293C88.1389 50.8293 87.647 50.7529 87.1791 50.6001C86.7207 50.4378 86.3196 50.1943 85.9758 49.8696C85.632 49.5449 85.3598 49.139 85.1592 48.6519C84.9587 48.1649 84.8584 47.5919 84.8584 46.9329V46.6464C84.8584 46.0256 84.9587 45.4813 85.1592 45.0133C85.3598 44.5454 85.632 44.1538 85.9758 43.8387C86.3196 43.5235 86.7207 43.2895 87.1791 43.1367C87.647 42.9744 88.1389 42.8932 88.6546 42.8932C89.1703 42.8932 89.6573 42.9744 90.1157 43.1367C90.5742 43.2895 90.9753 43.5235 91.3191 43.8387C91.6724 44.1538 91.9494 44.5454 92.1499 45.0133C92.3505 45.4813 92.4508 46.0256 92.4508 46.6464V46.9329C92.4508 47.5823 92.3505 48.1505 92.1499 48.6376C91.9494 49.1246 91.6724 49.5305 91.3191 49.8552C90.9753 50.1799 90.5742 50.4235 90.1157 50.5858C89.6573 50.7482 89.1703 50.8293 88.6546 50.8293ZM88.6546 49.2249C89.1894 49.2249 89.6335 49.0339 89.9868 48.6519C90.3497 48.2699 90.5312 47.6969 90.5312 46.9329V46.6464C90.5312 45.9492 90.3497 45.4192 89.9868 45.0563C89.6335 44.6838 89.1894 44.4976 88.6546 44.4976C88.1102 44.4976 87.6614 44.6838 87.308 45.0563C86.9547 45.4192 86.778 45.9492 86.778 46.6464V46.9329C86.778 47.7065 86.9547 48.2842 87.308 48.6662C87.6614 49.0387 88.1102 49.2249 88.6546 49.2249ZM92.9499 49.0817H93.8094C93.9049 48.9384 93.9909 48.7331 94.0673 48.4657C94.1437 48.1887 94.201 47.8831 94.2392 47.5489C94.2869 47.2051 94.3203 46.8469 94.3394 46.4745C94.3681 46.0925 94.3824 45.72 94.3824 45.3571V43.0651H100.327V49.0817H101.259V52.4481H99.5968V50.6574H94.6116V52.4481H92.9499V49.0817ZM98.4364 49.0817V44.6409H96.1158V45.6436C96.1158 45.9779 96.1062 46.3074 96.0871 46.6321C96.068 46.9568 96.0394 47.2719 96.0012 47.5775C95.9725 47.8736 95.9295 48.1505 95.8722 48.4084C95.8149 48.6662 95.7433 48.8907 95.6574 49.0817H98.4364Z" fill="#1D3778"/>
<path d="M39.0492 34.6024L14.1128 43.5852C13.7944 43.6915 13.4761 43.6384 13.2108 43.3726L11.1416 39.4924C10.7172 39.0672 9.60297 38.9609 10.1335 38.6951L42.604 24.6096C43.1345 24.3438 43.7712 24.769 43.7712 25.3537V27.6924C43.8242 30.8285 41.9142 33.5393 39.0492 34.6024Z" fill="#E6E6E6"/>
<path d="M3.6077 33.6991L2.7588 27.6397C2.65269 27.2676 2.86492 26.8955 3.18325 26.6829L42.604 6.0595C43.1877 5.74058 43.8243 6.16581 43.8243 6.80365L43.3468 13.6073C43.3468 13.9262 43.3999 14.0856 43.1346 14.2451L4.828 34.2307C4.35049 34.4964 3.76687 34.2307 3.6077 33.6991Z" fill="#E6E6E6"/>
<path d="M30.6664 6.42925L3.76685 16.6878C3.23628 16.9004 2.59961 16.5283 2.59961 15.8905V9.83105C2.59961 9.40583 2.86489 9.08691 3.28934 9.03375L24.9893 4.83466C25.0424 4.83466 25.0955 4.83466 25.1485 4.83466H30.348C31.25 4.83466 31.5153 6.11033 30.6664 6.42925Z" fill="#E6E6E6"/>
<path d="M43.8244 25.407V28.9151C43.8244 31.4133 42.8163 33.8052 41.0654 35.5592L23.8222 52.6746C23.5038 52.9935 22.9733 52.9935 22.6549 52.6746L19.0471 49.1133C18.7288 48.7944 18.7288 48.2628 19.0471 47.9439L42.3918 24.8223C42.9224 24.2908 43.8244 24.6628 43.8244 25.407Z" fill="url(#paint0_linear_1129:10244)"/>
<path d="M43.8244 6.85672V13.1819C43.8244 13.9261 43.5591 14.6171 43.0286 15.0955L14.4312 43.3729C14.1129 43.6918 13.5823 43.6918 13.264 43.3729L10.5051 40.6621C9.70924 39.8648 9.70924 38.5891 10.5051 37.7918L42.3919 6.21888C42.9224 5.68735 43.8244 6.11257 43.8244 6.85672Z" fill="url(#paint1_linear_1129:10244)"/>
<path d="M33.16 6.27192L5.0402 34.1242C4.72186 34.4431 4.1913 34.4431 3.87296 34.1242C3.07712 33.3269 2.59961 32.2638 2.59961 31.1476V27.4269C2.59961 27.2143 2.70572 27.0016 2.86489 26.8422L24.8302 5.0494C24.9893 4.88994 25.2016 4.78363 25.4138 4.78363H32.5764C33.3192 4.83678 33.6906 5.74039 33.16 6.27192Z" fill="url(#paint2_linear_1129:10244)"/>
<path d="M14.3781 6.2721L4.03213 16.5307C3.50157 17.0622 2.59961 16.6901 2.59961 15.946V9.5676C2.59961 9.35499 2.70572 9.14237 2.86489 8.98292L6.89716 5.10274C7.05633 4.94328 7.26856 4.89012 7.48078 4.89012H13.7945C14.5373 4.83697 14.9087 5.74057 14.3781 6.2721Z" fill="url(#paint3_linear_1129:10244)"/>
<defs>
<linearGradient id="paint0_linear_1129:10244" x1="-2.17624" y1="14.4059" x2="39.5292" y2="43.0661" gradientUnits="userSpaceOnUse">
<stop stop-color="#1B1464"/>
<stop offset="0.1244" stop-color="#1A1A67"/>
<stop offset="0.2823" stop-color="#18296F"/>
<stop offset="0.4583" stop-color="#14437C"/>
<stop offset="0.6475" stop-color="#0E688E"/>
<stop offset="0.845" stop-color="#0796A5"/>
<stop offset="1" stop-color="#00BFBA"/>
</linearGradient>
<linearGradient id="paint1_linear_1129:10244" x1="2.80992" y1="7.15044" x2="44.5153" y2="35.8107" gradientUnits="userSpaceOnUse">
<stop stop-color="#1B1464"/>
<stop offset="0.1244" stop-color="#1A1A67"/>
<stop offset="0.2823" stop-color="#18296F"/>
<stop offset="0.4583" stop-color="#14437C"/>
<stop offset="0.6475" stop-color="#0E688E"/>
<stop offset="0.845" stop-color="#0796A5"/>
<stop offset="1" stop-color="#00BFBA"/>
</linearGradient>
<linearGradient id="paint2_linear_1129:10244" x1="2.06523" y1="8.23391" x2="43.7706" y2="36.8941" gradientUnits="userSpaceOnUse">
<stop stop-color="#1B1464"/>
<stop offset="0.1244" stop-color="#1A1A67"/>
<stop offset="0.2823" stop-color="#18296F"/>
<stop offset="0.4583" stop-color="#14437C"/>
<stop offset="0.6475" stop-color="#0E688E"/>
<stop offset="0.845" stop-color="#0796A5"/>
<stop offset="1" stop-color="#00BFBA"/>
</linearGradient>
<linearGradient id="paint3_linear_1129:10244" x1="2.98618" y1="6.89389" x2="44.6916" y2="35.5541" gradientUnits="userSpaceOnUse">
<stop stop-color="#1B1464"/>
<stop offset="0.1244" stop-color="#1A1A67"/>
<stop offset="0.2823" stop-color="#18296F"/>
<stop offset="0.4583" stop-color="#14437C"/>
<stop offset="0.6475" stop-color="#0E688E"/>
<stop offset="0.845" stop-color="#0796A5"/>
<stop offset="1" stop-color="#00BFBA"/>
</linearGradient>
</defs>
</svg>
