<svg width="40" height="47" viewBox="0 0 40 47" fill="none" xmlns="http://www.w3.org/2000/svg">
<path d="M35.3667 29.1184L11.171 37.8904C10.8622 37.9942 10.5533 37.9423 10.2959 37.6828L8.28815 33.8937C7.87631 33.4785 6.79523 33.3747 7.31003 33.1151L38.8159 19.3603C39.3307 19.1008 39.9484 19.516 39.9484 20.087V22.3708C39.9999 25.4332 38.1466 28.0803 35.3667 29.1184Z" fill="#E6E6E6"/>
<path d="M0.977907 28.2365L0.154224 22.3194C0.0512641 21.956 0.257185 21.5927 0.566066 21.3851L38.8158 1.24592C39.3821 0.93449 39.9999 1.34973 39.9999 1.97259L39.5365 8.61644C39.5365 8.92787 39.588 9.08358 39.3306 9.2393L2.16195 28.7556C1.69863 29.0151 1.13235 28.7556 0.977907 28.2365Z" fill="#E6E6E6"/>
<path d="M27.233 1.6072L1.13256 11.6249C0.617762 11.8325 0 11.4692 0 10.8463V4.92912C0 4.51388 0.257401 4.20245 0.669242 4.15055L21.7246 0.0500488C21.7761 0.0500488 21.8276 0.0500488 21.8791 0.0500488H26.9241C27.7993 0.0500488 28.0567 1.29577 27.233 1.6072Z" fill="#E6E6E6"/>
<path d="M39.9999 20.1392V23.565C39.9999 26.0045 39.0218 28.3402 37.323 30.0531L20.5919 46.7665C20.283 47.0779 19.7682 47.0779 19.4594 46.7665L15.9587 43.2889C15.6498 42.9774 15.6498 42.4584 15.9587 42.147L38.61 19.5683C39.1248 19.0492 39.9999 19.4125 39.9999 20.1392Z" fill="url(#paint0_linear_1598_16270)"/>
<path d="M40 2.02446V8.20116C40 8.92783 39.7426 9.60259 39.2278 10.0697L11.48 37.6832C11.1711 37.9947 10.6563 37.9947 10.3474 37.6832L7.67046 35.0361C6.89826 34.2575 6.89826 33.0118 7.67046 32.2332L38.61 1.40159C39.1248 0.882544 40 1.29778 40 2.02446Z" fill="url(#paint1_linear_1598_16270)"/>
<path d="M29.6526 1.45334L2.36809 28.6516C2.05921 28.963 1.5444 28.963 1.23552 28.6516C0.463321 27.873 0 26.8349 0 25.7449V22.1116C0 21.9039 0.10296 21.6963 0.257401 21.5406L21.5702 0.259525C21.7246 0.10381 21.9305 0 22.1365 0H29.0863C29.807 0.0519051 30.1674 0.934291 29.6526 1.45334Z" fill="url(#paint2_linear_1598_16270)"/>
<path d="M11.4286 1.45402L1.38996 11.4717C0.875162 11.9907 0 11.6274 0 10.9007V4.67213C0 4.46451 0.10296 4.25689 0.257401 4.10118L4.16989 0.312107C4.32433 0.156392 4.53025 0.104486 4.73617 0.104486H10.8623C11.583 0.0525812 11.9434 0.934967 11.4286 1.45402Z" fill="url(#paint3_linear_1598_16270)"/>
<defs>
<linearGradient id="paint0_linear_1598_16270" x1="-4.63417" y1="9.39648" x2="35.998" y2="37.1411" gradientUnits="userSpaceOnUse">
<stop stop-color="#1B1464"/>
<stop offset="0.1244" stop-color="#1A1A67"/>
<stop offset="0.2823" stop-color="#18296F"/>
<stop offset="0.4583" stop-color="#14437C"/>
<stop offset="0.6475" stop-color="#0E688E"/>
<stop offset="0.845" stop-color="#0796A5"/>
<stop offset="1" stop-color="#00BFBA"/>
</linearGradient>
<linearGradient id="paint1_linear_1598_16270" x1="0.203885" y1="2.31128" x2="40.836" y2="30.056" gradientUnits="userSpaceOnUse">
<stop stop-color="#1B1464"/>
<stop offset="0.1244" stop-color="#1A1A67"/>
<stop offset="0.2823" stop-color="#18296F"/>
<stop offset="0.4583" stop-color="#14437C"/>
<stop offset="0.6475" stop-color="#0E688E"/>
<stop offset="0.845" stop-color="#0796A5"/>
<stop offset="1" stop-color="#00BFBA"/>
</linearGradient>
<linearGradient id="paint2_linear_1598_16270" x1="-0.518508" y1="3.36926" x2="40.1136" y2="31.1139" gradientUnits="userSpaceOnUse">
<stop stop-color="#1B1464"/>
<stop offset="0.1244" stop-color="#1A1A67"/>
<stop offset="0.2823" stop-color="#18296F"/>
<stop offset="0.4583" stop-color="#14437C"/>
<stop offset="0.6475" stop-color="#0E688E"/>
<stop offset="0.845" stop-color="#0796A5"/>
<stop offset="1" stop-color="#00BFBA"/>
</linearGradient>
<linearGradient id="paint3_linear_1598_16270" x1="0.375085" y1="2.0612" x2="41.0073" y2="29.8058" gradientUnits="userSpaceOnUse">
<stop stop-color="#1B1464"/>
<stop offset="0.1244" stop-color="#1A1A67"/>
<stop offset="0.2823" stop-color="#18296F"/>
<stop offset="0.4583" stop-color="#14437C"/>
<stop offset="0.6475" stop-color="#0E688E"/>
<stop offset="0.845" stop-color="#0796A5"/>
<stop offset="1" stop-color="#00BFBA"/>
</linearGradient>
</defs>
</svg>
