<svg width="14" height="14" viewBox="0 0 14 14" fill="none" xmlns="http://www.w3.org/2000/svg">
<path d="M6.99951 0.000999451C6.51626 0.000999451 6.12451 0.39275 6.12451 0.875999V6.126H0.874512C0.391263 6.126 -0.000488281 6.51775 -0.000488281 7.001C-0.000488281 7.48425 0.391263 7.876 0.874512 7.876H6.12451V13.126C6.12451 13.6092 6.51626 14.001 6.99951 14.001C7.48276 14.001 7.87451 13.6092 7.87451 13.126V7.876H13.1245C13.6078 7.876 13.9995 7.48425 13.9995 7.001C13.9995 6.51775 13.6078 6.126 13.1245 6.126H7.87451V0.875999C7.87451 0.39275 7.48276 0.000999451 6.99951 0.000999451Z" fill="#414141"/>
</svg>
