<svg width="24" height="24" viewBox="0 0 24 24" fill="none" xmlns="http://www.w3.org/2000/svg">
<path fill-rule="evenodd" clip-rule="evenodd" d="M3.75 5.65554V13.0262C3.75 13.9291 4.0892 14.795 4.69297 15.4335L9.72346 20.7529C10.9808 22.0824 13.0192 22.0824 14.2765 20.7529L19.307 15.4335C19.9108 14.795 20.25 13.9291 20.25 13.0262V5.65554C20.25 3.77533 18.8086 2.25 17.0305 2.25H6.96951C5.19142 2.25 3.75 3.77533 3.75 5.65554ZM15.7447 8.21256C15.4478 7.9272 14.9696 7.92916 14.6766 8.21844L11.308 11.5388L9.92882 10.213C9.63183 9.92763 9.15463 9.93058 8.86067 10.2199C8.56771 10.5091 8.57073 10.9739 8.86771 11.2593L10.7835 13.1028C10.9325 13.246 11.1258 13.3166 11.3191 13.3147C11.5124 13.3137 11.7047 13.2411 11.8517 13.096L15.7508 9.252C16.0437 8.96272 16.0407 8.49791 15.7447 8.21256Z" fill="#414141"/>
</svg>
