<svg width="228" height="119" viewBox="0 0 228 119" fill="none" xmlns="http://www.w3.org/2000/svg">
<mask id="mask0_838:10642" style="mask-type:alpha" maskUnits="userSpaceOnUse" x="-98" y="-211" width="338" height="346">
<path d="M-16.6683 130.214L230.804 -126.541V-112.277L-3.10441 130.214H-16.6683Z" fill="#CEE0F7"/>
<path d="M-43.5193 130.214L230.804 -154.214V-139.95L-29.6786 130.214H-43.5193Z" fill="#CEE0F7"/>
<path d="M-70.6471 130.214L230.804 -183.028V-168.478L-56.8063 130.214H-70.6471Z" fill="#CEE0F7"/>
<path d="M-97.7748 130.214L230.804 -210.7V-197.577L-85.0414 130.214H-97.7748Z" fill="#CEE0F7"/>
<path d="M92.3965 130.214L230.804 -13.569V0.695228L105.96 130.214H92.3965Z" fill="#CEE0F7"/>
<path d="M65.5455 130.214L230.804 -41.2415V-26.692L79.3863 130.214H65.5455Z" fill="#CEE0F7"/>
<path d="M38.141 130.214L230.804 -69.7699V-55.2204L52.2585 130.214H38.141Z" fill="#CEE0F7"/>
<path d="M11.2899 130.214L230.804 -97.4425V-84.3194L24.0234 130.214H11.2899Z" fill="#CEE0F7"/>
<path d="M201.461 130.214L230.804 99.6887V113.953L215.025 130.214H201.461Z" fill="#CEE0F7"/>
<path d="M174.61 130.214L230.804 72.0162V86.2804L188.451 130.214H174.61Z" fill="#CEE0F7"/>
<path d="M147.206 130.214L230.804 43.4878V58.0373L161.323 130.214H147.206Z" fill="#CEE0F7"/>
<path d="M120.355 130.214L230.804 15.53V28.9383L133.088 130.214H120.355Z" fill="#CEE0F7"/>
<path d="M158.115 -208.457L-91.0464 49.9874V35.6294L144.458 -208.457H158.115Z" fill="#CEE0F7"/>
<path d="M185.149 -208.457L-91.0464 77.842V63.484L171.214 -208.457H185.149Z" fill="#CEE0F7"/>
<path d="M212.462 -208.457L-91.0464 106.845V92.2001L198.527 -208.457H212.462Z" fill="#CEE0F7"/>
<path d="M239.775 -208.457L-91.0464 134.7V121.49L226.955 -208.457H239.775Z" fill="#CEE0F7"/>
<path d="M129.966 -208.457L-91.0464 20.6971V7.48766L117.145 -208.457H129.966Z" fill="#CEE0F7"/>
</mask>
<g mask="url(#mask0_838:10642)">
<rect x="-86" y="-195" width="314" height="314" fill="url(#paint0_linear_838:10642)"/>
</g>
<defs>
<linearGradient id="paint0_linear_838:10642" x1="71" y1="-11.5" x2="220.5" y2="111" gradientUnits="userSpaceOnUse">
<stop offset="0.515227" stop-color="#DDE2E7" stop-opacity="0"/>
<stop offset="1" stop-color="#B2D5FF" stop-opacity="0.17"/>
</linearGradient>
</defs>
</svg>
