<svg width="24" height="24" viewBox="0 0 24 24" fill="none" xmlns="http://www.w3.org/2000/svg">
<path fill-rule="evenodd" clip-rule="evenodd" d="M21.5417 6.95696C21.6801 6.50198 21.5417 6.16699 20.8793 6.16699H18.6919C18.1352 6.16699 17.8786 6.45615 17.7394 6.7753C17.7394 6.7753 16.627 9.43851 15.0512 11.1684C14.5412 11.6701 14.3096 11.8292 14.0313 11.8292C13.8921 11.8292 13.6829 11.6701 13.6829 11.2143V6.95696C13.6829 6.41031 13.5296 6.16699 13.0663 6.16699H9.62646C9.27897 6.16699 9.06982 6.42031 9.06982 6.66114C9.06982 7.17861 9.85811 7.29861 9.93894 8.75521V11.9201C9.93894 12.6142 9.81145 12.74 9.53313 12.74C8.7915 12.74 6.98741 10.0643 5.91663 7.00279C5.70914 6.40698 5.49915 6.16699 4.94001 6.16699H2.75094C2.12597 6.16699 2.00098 6.45615 2.00098 6.7753C2.00098 7.3436 2.74261 10.1668 5.45498 13.9008C7.26323 16.4507 9.80895 17.8331 12.128 17.8331C13.5188 17.8331 13.6904 17.5265 13.6904 16.9973V15.0699C13.6904 14.4558 13.8221 14.3333 14.2629 14.3333C14.5879 14.3333 15.1437 14.4933 16.442 15.7224C17.9252 17.1798 18.1694 17.8331 19.0044 17.8331H21.1918C21.8167 17.8331 22.13 17.5265 21.9501 16.9198C21.7517 16.3165 21.0434 15.4407 20.1043 14.4016C19.5943 13.81 18.8294 13.1725 18.5969 12.8534C18.2727 12.4442 18.3652 12.2617 18.5969 11.8976C18.5969 11.8976 21.2634 8.2094 21.5409 6.95696H21.5417Z" fill="white"/>
</svg>
