<svg width="32" height="32" viewBox="0 0 32 32" fill="none" xmlns="http://www.w3.org/2000/svg">
<path d="M19.8286 4H15.2006L14.2672 9.08414C14.1656 9.63801 14.5816 10.15 15.1333 10.15H17.9682C18.3923 10.15 18.7562 9.84154 18.8343 9.41586L19.8286 4Z" fill="#868686"/>
<path d="M21.9205 4L20.8552 9.80286C20.5947 11.2218 19.3817 12.25 17.9682 12.25H15.1333C13.2942 12.25 11.9074 10.5434 12.2463 8.69713L13.1086 4H9.01108C6.80052 4 4.93216 5.673 4.643 7.91135L2.7052 22.9114C2.35695 25.6071 4.41103 28 7.07328 28H22.9888C25.1994 28 27.0678 26.327 27.3569 24.0886L29.2947 9.08865C29.643 6.39293 27.5889 4 24.9266 4H21.9205Z" fill="#868686"/>
</svg>
