<svg width="24" height="24" viewBox="0 0 24 24" fill="none" xmlns="http://www.w3.org/2000/svg">
<path fill-rule="evenodd" clip-rule="evenodd" d="M13.7079 2.46C13.7079 2.21 13.5 2 13.2525 2H7.96535C5.4901 2 3.5 4.03 3.5 6.51V17.29C3.5 19.89 5.58911 22 8.17327 22H16.0446C18.5 22 20.5 19.99 20.5 17.51V9.47C20.5 9.22 20.302 9.02 20.0446 9.02C19.8143 9.02 19.5609 9.02292 19.3282 9.02561H19.3282H19.3281C19.2023 9.02706 19.0824 9.02845 18.9756 9.02926L18.8069 9.03C18.6125 9.03 18.3879 9.0281 18.1347 9.02595L18.1346 9.02595L18.1344 9.02595H18.1344C17.8075 9.02317 17.4332 9.02 17.0149 9.02C15.1931 9.01 13.7079 7.51 13.7079 5.68V2.46ZM15.145 2.9061C15.145 2.4751 15.6629 2.2611 15.9579 2.5721C16.7202 3.37185 17.8869 4.59736 18.8733 5.63339L19.945 6.7591C20.2342 7.0621 20.0223 7.5651 19.6045 7.5661C18.7916 7.5691 17.8322 7.5661 17.1421 7.5591C16.047 7.5591 15.145 6.6481 15.145 5.5421V2.9061ZM13.3868 10.9413L12.6356 10.3517C11.9817 9.83791 11.1711 9.892 10.7064 10.4815L10.2038 11.1257C10.1389 11.2063 10.1551 11.3253 10.2362 11.3902C10.2362 11.3902 11.5062 12.3962 11.5332 12.4178C11.6197 12.4989 11.6845 12.6071 11.7007 12.7369C11.7277 12.9911 11.5494 13.2291 11.2846 13.2615C11.1603 13.2778 11.0414 13.2399 10.955 13.1696L9.62014 12.1203C9.55529 12.0722 9.45802 12.0825 9.40398 12.1474L6.23179 16.2038C6.02643 16.458 5.95618 16.7879 6.02643 17.107L6.43174 18.8432C6.45335 18.9351 6.53441 19 6.63169 19L8.41503 18.9784C8.73928 18.973 9.04191 18.8269 9.24726 18.5673L13.7218 12.8505C13.965 12.5422 14.0515 12.1858 13.9704 11.8228C13.9002 11.4929 13.6948 11.1792 13.3868 10.9413Z" fill="#414141"/>
</svg>
