<svg width="42" height="49" viewBox="0 0 42 49" fill="none" xmlns="http://www.w3.org/2000/svg">
<path d="M37.0493 30.6024L12.1129 39.5852C11.7946 39.6915 11.4762 39.6384 11.2109 39.3726L9.14176 35.4924C8.71731 35.0672 7.60313 34.9609 8.13369 34.6951L40.6041 20.6096C41.1347 20.3438 41.7713 20.769 41.7713 21.3537V23.6924C41.8244 26.8285 39.9144 29.5393 37.0493 30.6024Z" fill="#E6E6E6"/>
<path d="M1.6078 29.6991L0.758896 23.6397C0.652783 23.2676 0.865008 22.8955 1.18335 22.6829L40.6041 2.0595C41.1877 1.74058 41.8244 2.16581 41.8244 2.80365L41.3469 9.60725C41.3469 9.92617 41.4 10.0856 41.1347 10.2451L2.82809 30.2307C2.35058 30.4964 1.76696 30.2307 1.6078 29.6991Z" fill="#E6E6E6"/>
<path d="M28.6665 2.42925L1.76697 12.6878C1.23641 12.9004 0.599731 12.5283 0.599731 11.8905V5.83105C0.599731 5.40583 0.865012 5.08691 1.28946 5.03375L22.9895 0.834656C23.0425 0.834656 23.0956 0.834656 23.1486 0.834656H28.3481C29.2501 0.834656 29.5154 2.11033 28.6665 2.42925Z" fill="#E6E6E6"/>
<path d="M41.8244 21.407V24.9151C41.8244 27.4133 40.8164 29.8052 39.0655 31.5592L21.8222 48.6746C21.5039 48.9935 20.9733 48.9935 20.655 48.6746L17.0472 45.1133C16.7288 44.7944 16.7288 44.2628 17.0472 43.9439L40.3919 20.8223C40.9225 20.2908 41.8244 20.6628 41.8244 21.407Z" fill="url(#paint0_linear_1870_6931)"/>
<path d="M41.8244 2.85672V9.18194C41.8244 9.92608 41.5592 10.6171 41.0286 11.0955L12.4313 39.3729C12.1129 39.6918 11.5824 39.6918 11.264 39.3729L8.50512 36.6621C7.70927 35.8648 7.70927 34.5891 8.50512 33.7918L40.3919 2.21888C40.9225 1.68735 41.8244 2.11257 41.8244 2.85672Z" fill="url(#paint1_linear_1870_6931)"/>
<path d="M31.1601 2.27192L3.04032 30.1242C2.72198 30.4431 2.19142 30.4431 1.87308 30.1242C1.07724 29.3269 0.599731 28.2638 0.599731 27.1476V23.4269C0.599731 23.2143 0.705844 23.0016 0.865013 22.8422L22.8303 1.0494C22.9895 0.889937 23.2017 0.78363 23.4139 0.78363H30.5765C31.3193 0.836784 31.6907 1.74039 31.1601 2.27192Z" fill="url(#paint2_linear_1870_6931)"/>
<path d="M12.3782 2.2721L2.03225 12.5307C1.50169 13.0622 0.599731 12.6901 0.599731 11.946V5.5676C0.599731 5.35499 0.705844 5.14237 0.865013 4.98292L4.89729 1.10274C5.05646 0.943276 5.26868 0.890122 5.48091 0.890122H11.7946C12.5374 0.836969 12.9088 1.74057 12.3782 2.2721Z" fill="url(#paint3_linear_1870_6931)"/>
<defs>
<linearGradient id="paint0_linear_1870_6931" x1="-4.17618" y1="10.4059" x2="37.5292" y2="39.0661" gradientUnits="userSpaceOnUse">
<stop stop-color="#1B1464"/>
<stop offset="0.1244" stop-color="#1A1A67"/>
<stop offset="0.2823" stop-color="#18296F"/>
<stop offset="0.4583" stop-color="#14437C"/>
<stop offset="0.6475" stop-color="#0E688E"/>
<stop offset="0.845" stop-color="#0796A5"/>
<stop offset="1" stop-color="#00BFBA"/>
</linearGradient>
<linearGradient id="paint1_linear_1870_6931" x1="0.809946" y1="3.15044" x2="42.5154" y2="31.8107" gradientUnits="userSpaceOnUse">
<stop stop-color="#1B1464"/>
<stop offset="0.1244" stop-color="#1A1A67"/>
<stop offset="0.2823" stop-color="#18296F"/>
<stop offset="0.4583" stop-color="#14437C"/>
<stop offset="0.6475" stop-color="#0E688E"/>
<stop offset="0.845" stop-color="#0796A5"/>
<stop offset="1" stop-color="#00BFBA"/>
</linearGradient>
<linearGradient id="paint2_linear_1870_6931" x1="0.0653486" y1="4.23391" x2="41.7707" y2="32.8941" gradientUnits="userSpaceOnUse">
<stop stop-color="#1B1464"/>
<stop offset="0.1244" stop-color="#1A1A67"/>
<stop offset="0.2823" stop-color="#18296F"/>
<stop offset="0.4583" stop-color="#14437C"/>
<stop offset="0.6475" stop-color="#0E688E"/>
<stop offset="0.845" stop-color="#0796A5"/>
<stop offset="1" stop-color="#00BFBA"/>
</linearGradient>
<linearGradient id="paint3_linear_1870_6931" x1="0.986299" y1="2.89389" x2="42.6917" y2="31.5541" gradientUnits="userSpaceOnUse">
<stop stop-color="#1B1464"/>
<stop offset="0.1244" stop-color="#1A1A67"/>
<stop offset="0.2823" stop-color="#18296F"/>
<stop offset="0.4583" stop-color="#14437C"/>
<stop offset="0.6475" stop-color="#0E688E"/>
<stop offset="0.845" stop-color="#0796A5"/>
<stop offset="1" stop-color="#00BFBA"/>
</linearGradient>
</defs>
</svg>
