<svg width="18" height="21" viewBox="0 0 18 21" fill="none" xmlns="http://www.w3.org/2000/svg">
<path fill-rule="evenodd" clip-rule="evenodd" d="M11.9142 0C12.1804 0 12.4355 0.106082 12.6232 0.294761L17.709 5.40743C17.8954 5.59481 18 5.84837 18 6.11267V20C18 20.5523 17.5523 21 17 21H1C0.447715 21 0 20.5523 0 20V1C0 0.447715 0.447714 0 0.999999 0H11.9142ZM12 6V1.5L16.5 6H12ZM4.02 16.5H4.5C4.97096 16.5185 5.43327 16.3698 5.805 16.08C5.95839 15.9454 6.08075 15.7792 6.16362 15.5927C6.24649 15.4063 6.2879 15.204 6.285 15C6.285 14.04 5.715 13.5 4.59 13.5H3V18H4.02V16.5ZM4.41 14.325H4.02V15.72H4.41C4.95 15.72 5.22 15.48 5.22 15.015C5.22 14.55 4.95 14.325 4.41 14.325ZM10.5 17.37C10.7215 17.1518 10.8948 16.8895 11.0084 16.6001C11.1221 16.3107 11.1738 16.0006 11.16 15.69C11.16 14.19 10.365 13.5 8.76 13.5H7.17V18H8.76C9.07729 18.0154 9.39448 17.9676 9.69316 17.8594C9.99185 17.7513 10.2661 17.5849 10.5 17.37ZM8.175 14.325V17.175H8.685C8.8749 17.1831 9.06448 17.1527 9.24234 17.0857C9.4202 17.0187 9.58268 16.9164 9.72 16.785C9.98267 16.4886 10.1175 16.1004 10.095 15.705C10.1036 15.5208 10.0748 15.3368 10.0104 15.1641C9.94591 14.9914 9.84714 14.8335 9.72 14.7C9.57967 14.5694 9.41418 14.4688 9.23364 14.4043C9.05311 14.3398 8.86132 14.3128 8.67 14.325H8.175ZM13.395 16.26H14.85V15.435H13.395V14.325H14.985V13.5H12.375V18H13.395V16.26Z" fill="#868686"/>
</svg>
